<svg id="visual" viewBox="0 0 900 600" width="900" height="600" xmlns="http://www.w3.org/2000/svg" xmlns:xlink="http://www.w3.org/1999/xlink" version="1.1"><rect x="0" y="0" width="900" height="600" fill="#001220"></rect><path d="M0 243L25 241.3C50 239.7 100 236.3 150 243.8C200 251.3 250 269.7 300 275.3C350 281 400 274 450 262.3C500 250.7 550 234.3 600 232.7C650 231 700 244 750 241.7C800 239.3 850 221.7 875 212.8L900 204L900 601L875 601C850 601 800 601 750 601C700 601 650 601 600 601C550 601 500 601 450 601C400 601 350 601 300 601C250 601 200 601 150 601C100 601 50 601 25 601L0 601Z" fill="#8505a5"></path><path d="M0 264L25 268.5C50 273 100 282 150 278.8C200 275.7 250 260.3 300 253.2C350 246 400 247 450 255.7C500 264.3 550 280.7 600 279.2C650 277.7 700 258.3 750 248.7C800 239 850 239 875 239L900 239L900 601L875 601C850 601 800 601 750 601C700 601 650 601 600 601C550 601 500 601 450 601C400 601 350 601 300 601C250 601 200 601 150 601C100 601 50 601 25 601L0 601Z" fill="#8c05ae"></path><path d="M0 310L25 309.7C50 309.3 100 308.7 150 313.8C200 319 250 330 300 336.5C350 343 400 345 450 342C500 339 550 331 600 331.5C650 332 700 341 750 333C800 325 850 300 875 287.5L900 275L900 601L875 601C850 601 800 601 750 601C700 601 650 601 600 601C550 601 500 601 450 601C400 601 350 601 300 601C250 601 200 601 150 601C100 601 50 601 25 601L0 601Z" fill="#9304b6"></path><path d="M0 378L25 376.8C50 375.7 100 373.3 150 373.5C200 373.7 250 376.3 300 371.7C350 367 400 355 450 345.3C500 335.7 550 328.3 600 328.7C650 329 700 337 750 336.5C800 336 850 327 875 322.5L900 318L900 601L875 601C850 601 800 601 750 601C700 601 650 601 600 601C550 601 500 601 450 601C400 601 350 601 300 601C250 601 200 601 150 601C100 601 50 601 25 601L0 601Z" fill="#9a04bf"></path><path d="M0 359L25 356.8C50 354.7 100 350.3 150 359.3C200 368.3 250 390.7 300 396C350 401.3 400 389.7 450 386.2C500 382.7 550 387.3 600 389.3C650 391.3 700 390.7 750 383.7C800 376.7 850 363.3 875 356.7L900 350L900 601L875 601C850 601 800 601 750 601C700 601 650 601 600 601C550 601 500 601 450 601C400 601 350 601 300 601C250 601 200 601 150 601C100 601 50 601 25 601L0 601Z" fill="#a104c8"></path><path d="M0 398L25 398.2C50 398.3 100 398.7 150 397C200 395.3 250 391.7 300 393.8C350 396 400 404 450 412C500 420 550 428 600 422C650 416 700 396 750 392.8C800 389.7 850 403.3 875 410.2L900 417L900 601L875 601C850 601 800 601 750 601C700 601 650 601 600 601C550 601 500 601 450 601C400 601 350 601 300 601C250 601 200 601 150 601C100 601 50 601 25 601L0 601Z" fill="#a803d1"></path><path d="M0 463L25 456.8C50 450.7 100 438.3 150 434.2C200 430 250 434 300 435.3C350 436.7 400 435.3 450 432.8C500 430.3 550 426.7 600 427.7C650 428.7 700 434.3 750 434.5C800 434.7 850 429.3 875 426.7L900 424L900 601L875 601C850 601 800 601 750 601C700 601 650 601 600 601C550 601 500 601 450 601C400 601 350 601 300 601C250 601 200 601 150 601C100 601 50 601 25 601L0 601Z" fill="#af02da"></path><path d="M0 467L25 466.2C50 465.3 100 463.7 150 461.3C200 459 250 456 300 452C350 448 400 443 450 444.8C500 446.7 550 455.3 600 464C650 472.7 700 481.3 750 481.8C800 482.3 850 474.7 875 470.8L900 467L900 601L875 601C850 601 800 601 750 601C700 601 650 601 600 601C550 601 500 601 450 601C400 601 350 601 300 601C250 601 200 601 150 601C100 601 50 601 25 601L0 601Z" fill="#b602e3"></path><path d="M0 481L25 479.7C50 478.3 100 475.7 150 479.7C200 483.7 250 494.3 300 501.3C350 508.3 400 511.7 450 507.8C500 504 550 493 600 488C650 483 700 484 750 488.8C800 493.7 850 502.3 875 506.7L900 511L900 601L875 601C850 601 800 601 750 601C700 601 650 601 600 601C550 601 500 601 450 601C400 601 350 601 300 601C250 601 200 601 150 601C100 601 50 601 25 601L0 601Z" fill="#bd01ec"></path><path d="M0 529L25 525.5C50 522 100 515 150 517.8C200 520.7 250 533.3 300 535C350 536.7 400 527.3 450 523.5C500 519.7 550 521.3 600 526.7C650 532 700 541 750 546.3C800 551.7 850 553.3 875 554.2L900 555L900 601L875 601C850 601 800 601 750 601C700 601 650 601 600 601C550 601 500 601 450 601C400 601 350 601 300 601C250 601 200 601 150 601C100 601 50 601 25 601L0 601Z" fill="#c501f6"></path><path d="M0 585L25 579.5C50 574 100 563 150 560C200 557 250 562 300 563C350 564 400 561 450 561C500 561 550 564 600 564.8C650 565.7 700 564.3 750 565.8C800 567.3 850 571.7 875 573.8L900 576L900 601L875 601C850 601 800 601 750 601C700 601 650 601 600 601C550 601 500 601 450 601C400 601 350 601 300 601C250 601 200 601 150 601C100 601 50 601 25 601L0 601Z" fill="#cc00ff"></path></svg>